<?xml version="1.0" encoding="iso-8859-1"?>
<!-- Generator: Adobe Illustrator 19.0.0, SVG Export Plug-In . SVG Version: 6.00 Build 0)  -->
<svg version="1.1" id="Layer_1" xmlns="http://www.w3.org/2000/svg" xmlns:xlink="http://www.w3.org/1999/xlink" x="0px" y="0px"
	 viewBox="0 0 512 512" style="enable-background:new 0 0 512 512;" xml:space="preserve">
<polyline style="fill:#F6E27D;" points="398.222,386.844 0,386.844 0,68.267 455.111,68.267 455.111,329.956 "/>
<polyline style="fill:#EFC27B;" points="426.667,386.844 227.556,386.844 227.556,68.267 455.111,68.267 455.111,329.956 "/>
<polygon style="fill:#F8E99B;" points="227.556,159.289 0,386.844 398.222,386.844 426.667,358.4 "/>
<polygon style="fill:#F6E27D;" points="426.667,358.4 227.556,159.289 227.556,386.844 398.222,386.844 "/>
<path style="fill:#FBF4CC;" d="M275.827,247.535L455.095,68.267H0.016l179.267,179.268
	C205.943,274.195,249.168,274.195,275.827,247.535z"/>
<path style="fill:#F8E99B;" d="M455.095,68.267h-227.54V267.53c17.471,0,34.942-6.665,48.271-19.995L455.095,68.267z"/>
<circle style="fill:#80CB93;" cx="455.111" cy="386.844" r="56.889"/>
<g>
</g>
<g>
</g>
<g>
</g>
<g>
</g>
<g>
</g>
<g>
</g>
<g>
</g>
<g>
</g>
<g>
</g>
<g>
</g>
<g>
</g>
<g>
</g>
<g>
</g>
<g>
</g>
<g>
</g>
</svg>
